<svg xmlns="http://www.w3.org/2000/svg">

    <symbol id="logo" viewBox="0 0 28 56" fill="none">
        <path fill-rule="evenodd" clip-rule="evenodd" d="M4.01304 9.7355C4.92939 5.14854 9.11668 1.80044 13.8163 1.79611H13.8172C15.2641 1.79524 16.5532 2.04318 17.7756 2.55814C24.3591 5.33147 26.0904 13.8188 21.1047 18.938C20.8163 19.2344 20.4886 19.4922 20.1605 19.7503C19.957 19.9104 19.7534 20.0706 19.5589 20.2401C19.441 20.3433 19.3326 20.5098 19.317 20.6571C19.3075 20.7447 19.4922 20.9406 19.5832 20.9363C19.7847 20.9276 19.9848 20.9323 20.1834 20.9369C20.9346 20.9545 21.6635 20.9715 22.3643 20.2618C25.9673 16.6129 26.8828 10.6605 24.3331 6.19233C22.1597 2.38389 18.8602 0.29631 14.4691 0.0240927C11.6499 -0.151028 9.07854 0.63008 6.8193 2.31627C4.15695 4.30415 2.52624 6.9509 2.09711 10.26C1.55788 14.4161 2.89382 17.9159 5.96017 20.7612C6.05033 20.8453 6.17431 20.9458 6.28441 20.9484C6.88953 20.9649 7.49638 20.9658 8.1015 20.9406C8.21074 20.9363 8.37285 20.8011 8.40406 20.6953C8.4344 20.5904 8.34684 20.4343 8.27662 20.3234C8.24393 20.2721 8.18594 20.2376 8.12745 20.2029C8.09599 20.1842 8.06438 20.1654 8.03648 20.1439C4.59562 17.4859 3.15477 14.0294 4.01304 9.7355ZM18.4128 24.3198H26.0982L26.0973 24.3207C26.1003 24.3613 26.1035 24.3961 26.1062 24.4272L26.1063 24.4275L26.1063 24.4275C26.1115 24.4861 26.1155 24.5315 26.1155 24.5773L26.1155 24.5844L26.1155 24.5914L26.1155 24.5985C26.1095 29.4844 26.1034 34.3695 26.0956 39.2554C26.0939 40.3954 26.0921 41.5328 25.7402 42.6399C24.8758 45.3569 23.1437 47.4505 21.0232 49.2685C18.9269 51.0656 16.5663 52.4701 14.1917 53.852C14.0591 53.9291 13.7955 53.9126 13.6594 53.8303C13.4025 53.6743 13.1452 53.5189 12.8878 53.3634L12.8877 53.3634C11.6934 52.6419 10.4988 51.9204 9.34122 51.1437C7.21377 49.7175 5.27617 48.0686 3.79804 45.9464C2.61468 44.2472 1.80669 42.3997 1.79976 40.287C1.78645 36.5221 1.78194 32.7568 1.77744 28.9916L1.77744 28.9908L1.77744 28.99C1.77578 27.6032 1.77412 26.2163 1.77201 24.8296V24.3406H9.4652C9.4652 24.4811 9.46925 24.6182 9.47323 24.7526C9.48173 25.0394 9.48986 25.314 9.45739 25.5838C9.31608 26.7637 9.53282 27.8049 10.4942 28.599C10.5168 28.6172 10.5359 28.6398 10.5523 28.6632C10.8298 29.0516 10.8332 29.3931 10.5428 29.7754L10.5005 29.8312L10.5005 29.8313L10.5004 29.8313C10.2883 30.1113 10.0748 30.3929 9.83017 30.6432C9.54669 30.9328 9.45392 31.2501 9.45392 31.6524C9.45392 32.0685 9.53975 32.4049 9.84405 32.6979C9.99203 32.8403 10.1191 33.0045 10.2459 33.1685L10.2459 33.1686C10.2959 33.2332 10.3459 33.2978 10.3972 33.3611C10.8896 33.9679 10.887 34.2644 10.3789 34.8782C10.3129 34.958 10.2436 35.0353 10.1743 35.1126L10.1742 35.1127C10.0605 35.2394 9.94691 35.366 9.84838 35.5033C9.83102 35.5275 9.81323 35.552 9.79529 35.5766C9.66185 35.7601 9.52008 35.9549 9.4834 36.1613C9.3837 36.7187 9.47907 37.238 9.94461 37.6481C10.1328 37.8138 10.2876 38.0191 10.4409 38.2226C10.4705 38.2619 10.5001 38.3011 10.5298 38.3399C10.8393 38.7448 10.8428 39.082 10.5359 39.4825C10.2914 39.8024 10.0443 40.1232 9.76862 40.4162C9.53282 40.6667 9.48687 40.9433 9.45479 41.2736C9.39757 41.8701 9.5831 42.3304 10.007 42.7318C10.1567 42.8731 10.2841 43.0393 10.4107 43.2043C10.4425 43.2459 10.4743 43.2873 10.5064 43.3282C10.8506 43.7669 10.8584 44.1085 10.5194 44.5393C10.3557 44.7468 10.1857 44.9495 10.0157 45.1522L10.0156 45.1522L10.0156 45.1523L10.0153 45.1526L10.0152 45.1527C9.88913 45.303 9.76303 45.4533 9.63945 45.6057C9.45652 45.8311 9.36116 46.6269 9.54322 46.7908C9.91836 47.1289 10.3093 47.4503 10.7248 47.7919L10.7252 47.7923L10.726 47.7929C10.894 47.931 11.0659 48.0724 11.2424 48.2195C11.2464 48.1421 11.2503 48.0785 11.2537 48.0236C11.2598 47.9241 11.2641 47.8535 11.2641 47.7825L11.2641 47.7692C11.2667 39.6912 11.2693 31.6132 11.2702 23.5352C11.2702 22.8192 10.9216 22.4949 10.1449 22.4949C6.91207 22.4932 3.6784 22.4932 0.445604 22.4932H0V23.3003C0.0031793 25.2059 0.00674406 27.1113 0.0103088 29.0168C0.0174363 32.8266 0.0245637 36.6364 0.028609 40.4465C0.0303429 41.9299 0.411794 43.3196 1.01345 44.6616C2.08411 47.0491 3.7625 48.9598 5.72264 50.6443C7.90441 52.5191 10.3675 53.9741 12.8297 55.4285C13.1284 55.605 13.4271 55.7814 13.7253 55.9586C13.8449 56.0297 14.092 56.0028 14.2212 55.9248C14.5764 55.711 14.9323 55.4982 15.2883 55.2855L15.2886 55.2853C16.5981 54.5026 17.9079 53.7197 19.1818 52.8827C21.7826 51.174 24.1433 49.1896 25.8546 46.5402C27.0709 44.6564 27.8746 42.6286 27.8789 40.3425C27.8893 34.541 27.8997 28.7386 27.9231 22.9371C27.9248 22.5634 27.7939 22.4854 27.448 22.4871C24.8146 22.4971 22.1818 22.4965 19.5486 22.496H19.5485H19.5485L17.7921 22.4958C16.9477 22.4949 16.6504 22.7827 16.6504 23.6289C16.6486 31.6541 16.6486 39.6784 16.6486 47.7037C16.6486 47.8105 16.6544 47.917 16.6613 48.0441L16.6613 48.0445C16.6651 48.1143 16.6692 48.1902 16.6729 48.2758C16.8266 48.1544 16.9763 48.0388 17.1221 47.9261C17.4844 47.646 17.8229 47.3844 18.1406 47.0994C18.2871 46.9685 18.4042 46.7206 18.4042 46.5255C18.4141 40.6087 18.4136 34.6919 18.4131 28.775L18.4128 24.8322V24.3198ZM12.5486 20.7316H12.5482H12.5482C12.206 20.7343 11.8835 20.7369 11.5614 20.7263C10.6408 20.6943 9.98449 19.9522 10.0278 18.9829H17.8467C17.9455 19.875 17.2875 20.6795 16.4067 20.7203C16.064 20.7363 15.7204 20.7324 15.3612 20.7284H15.361C15.1952 20.7265 15.0262 20.7246 14.8523 20.7246V21.2552C14.8523 23.1186 14.8519 24.9821 14.8515 26.8455V26.8464C14.85 34.1314 14.8484 41.4164 14.8705 48.7015C14.8731 49.4912 14.7353 50.0764 13.8996 50.405C13.8406 50.3563 13.7766 50.3059 13.71 50.2534L13.7099 50.2533C13.5345 50.1151 13.3405 49.9621 13.1696 49.7869C13.0786 49.6932 13.0552 49.5034 13.0543 49.3569C13.0499 47.8222 13.0505 46.288 13.0512 44.7536V44.7536L13.0512 44.7472C13.0515 44.1913 13.0517 43.6354 13.0517 43.0794C13.0508 35.7633 13.0491 28.4473 13.0474 21.1312V20.7289C12.8754 20.729 12.7098 20.7303 12.5486 20.7316ZM10.6044 7.87321C10.5793 9.85068 11.9958 11.3297 13.936 11.3531V11.3522C15.7991 11.3748 17.3049 9.87409 17.3127 7.98677C17.3205 6.20262 15.8182 4.67682 14.0253 4.64821C12.1779 4.61873 10.6269 6.08125 10.6044 7.87321ZM14.0132 6.4575C14.8671 6.49044 15.5485 7.2048 15.5139 8.03099H15.513C15.4766 8.91266 14.7631 9.61314 13.9256 9.5906C13.0665 9.5672 12.3261 8.78349 12.3738 7.94429C12.4232 7.07909 13.1454 6.42369 14.0132 6.4575Z" fill="#BCA172"/>
    </symbol>

    <symbol id="logo-text" viewBox="0 0 123 21" fill="none">
        <path d="M11.953 9.28573H7.01246V5.97636C7.01246 5.01406 6.9577 4.41555 6.84817 4.18085C6.74646 3.93832 6.51567 3.81705 6.15578 3.81705C5.74896 3.81705 5.49078 3.96179 5.38125 4.25126C5.27172 4.54073 5.21695 5.16662 5.21695 6.12892V14.9539C5.21695 15.8771 5.27172 16.4795 5.38125 16.7612C5.49078 17.0428 5.73722 17.1836 6.12058 17.1836C6.48828 17.1836 6.7269 17.0428 6.83643 16.7612C6.95379 16.4795 7.01246 15.8184 7.01246 14.7779V12.3956H11.953V13.1349C11.953 15.0986 11.8122 16.4912 11.5306 17.3127C11.2568 18.1342 10.6426 18.854 9.68812 19.472C8.74147 20.0901 7.57185 20.3991 6.17925 20.3991C4.73189 20.3991 3.5388 20.137 2.59997 19.6128C1.66114 19.0887 1.03917 18.365 0.734046 17.4418C0.428927 16.5108 0.276367 15.1143 0.276367 13.2523V7.70145C0.276367 6.33233 0.323309 5.30744 0.417191 4.62679C0.511074 3.93832 0.788811 3.27722 1.2504 2.64351C1.71982 2.00981 2.36526 1.51301 3.18674 1.15312C4.01603 0.785416 4.9666 0.601562 6.03843 0.601562C7.49361 0.601562 8.69453 0.883211 9.64118 1.44651C10.5878 2.00981 11.2098 2.71393 11.5071 3.55887C11.8044 4.39599 11.953 5.70253 11.953 7.47848V9.28573Z" fill="#BCA172"/>
        <path d="M24.1574 1.00056V4.80282H21.2235V20.0001H16.2829V4.80282H13.3608V1.00056H24.1574Z" fill="#BCA172"/>
        <path d="M34.2962 1.00056L37.1245 20.0001H32.0665L31.8201 16.5851H30.048L29.7546 20.0001H24.638L27.1494 1.00056H34.2962ZM31.6792 13.2171C31.4289 11.0656 31.1785 8.40949 30.9282 5.24876C30.4275 8.8789 30.1145 11.535 29.9894 13.2171H31.6792Z" fill="#BCA172"/>
        <path d="M50.514 20.0001H45.5617V4.79109H44.1183V15.5524C44.1183 16.9685 43.9344 17.9855 43.5667 18.6036C43.2068 19.2217 42.6553 19.6089 41.912 19.7654C41.1688 19.9219 39.9835 20.0001 38.3562 20.0001H37.5817V16.7259C38.1841 16.7259 38.5987 16.6516 38.8256 16.503C39.0525 16.3543 39.1659 15.8458 39.1659 14.9774V0.988829H50.514V20.0001Z" fill="#BCA172"/>
        <path d="M64.4786 15.5524C64.4786 16.9685 64.2948 17.9855 63.9271 18.6036C63.5594 19.2217 63 19.6089 62.2489 19.7654C61.5057 19.9219 60.3165 20.0001 58.6814 20.0001H52.9662V0.988829H57.9186V7.50195H58.6814C60.207 7.50195 61.3609 7.59192 62.1433 7.77187C62.9257 7.95181 63.5085 8.35081 63.8919 8.96887C64.2831 9.57911 64.4786 10.5414 64.4786 11.8558V15.5524ZM59.5263 14.9774V12.2313C59.5263 11.4333 59.4442 10.9482 59.2799 10.7761C59.1234 10.604 58.6696 10.5062 57.9186 10.4827V16.7259C58.5445 16.7259 58.9669 16.6477 59.186 16.4912C59.4129 16.3269 59.5263 15.8223 59.5263 14.9774Z" fill="#BCA172"/>
        <path d="M84.487 10.694C84.487 11.9379 84.4283 12.8337 84.3109 13.3814C84.1466 14.1403 83.7985 14.8248 83.2665 15.4351C82.4372 16.3817 80.8764 16.855 78.5841 16.855H77.7157V20.0001H72.7633V16.855H72.0005C69.7004 16.855 68.1357 16.3817 67.3064 15.4351C66.7744 14.8248 66.4262 14.1403 66.2619 13.3814C66.1446 12.8337 66.0859 11.9379 66.0859 10.694V10.3654C66.0859 9.12143 66.1446 8.22563 66.2619 7.67798C66.4262 6.9191 66.7744 6.23453 67.3064 5.6243C68.1279 4.70111 69.6926 4.23952 72.0005 4.23952C72.1727 4.23952 72.4269 4.22779 72.7633 4.20432V0.988829H77.7157V4.20432C78.1147 4.22779 78.4041 4.23952 78.5841 4.23952C80.892 4.23952 82.4528 4.70111 83.2665 5.6243C83.7985 6.23453 84.1466 6.9191 84.3109 7.67798C84.4283 8.22563 84.487 9.12143 84.487 10.3654V10.694ZM79.5464 11.7619V9.3092C79.5464 8.65984 79.4173 8.13957 79.1591 7.7484C78.9088 7.35722 78.5958 7.16163 78.2203 7.16163H77.7157V13.8977H78.2203C78.5958 13.8977 78.9088 13.7021 79.1591 13.311C79.4173 12.9198 79.5464 12.4034 79.5464 11.7619ZM72.7633 13.8977V7.16163H72.3526C71.9849 7.16163 71.6719 7.35722 71.4138 7.7484C71.1634 8.13957 71.0382 8.65984 71.0382 9.3092V11.7619C71.0382 12.4034 71.1634 12.9198 71.4138 13.311C71.6719 13.7021 71.9849 13.8977 72.3526 13.8977H72.7633Z" fill="#BCA172"/>
        <path d="M97.6301 12.1257C97.6301 14.0346 97.5831 15.3881 97.4893 16.1861C97.4032 16.9763 97.1216 17.7 96.6443 18.3572C96.1749 19.0143 95.5373 19.519 94.7315 19.871C93.9256 20.2231 92.9868 20.3991 91.915 20.3991C90.8979 20.3991 89.9825 20.2348 89.1689 19.9062C88.3631 19.5698 87.7137 19.0691 87.2208 18.4041C86.7279 17.7391 86.4345 17.0154 86.3407 16.2331C86.2468 15.4507 86.1998 14.0816 86.1998 12.1257V8.87499C86.1998 6.96604 86.2429 5.61647 86.3289 4.82629C86.4228 4.02829 86.7045 3.30069 87.1739 2.64351C87.6511 1.98633 88.2927 1.48171 89.0985 1.12965C89.9043 0.777593 90.8431 0.601562 91.915 0.601562C92.932 0.601562 93.8435 0.769769 94.6493 1.10618C95.463 1.43477 96.1162 1.93157 96.6091 2.59657C97.102 3.26158 97.3954 3.98526 97.4893 4.76761C97.5831 5.54997 97.6301 6.9191 97.6301 8.87499V12.1257ZM92.6895 5.88247C92.6895 4.99841 92.6386 4.43511 92.5369 4.19258C92.4431 3.94223 92.2436 3.81705 91.9384 3.81705C91.6803 3.81705 91.4808 3.91876 91.3399 4.12217C91.2069 4.31776 91.1404 4.90453 91.1404 5.88247V14.7544C91.1404 15.8575 91.1835 16.5382 91.2695 16.7964C91.3634 17.0545 91.5746 17.1836 91.9032 17.1836C92.2396 17.1836 92.4548 17.035 92.5487 16.7377C92.6426 16.4404 92.6895 15.7324 92.6895 14.6136V5.88247Z" fill="#BCA172"/>
        <path d="M99.965 1.00056H104.941C106.286 1.00056 107.319 1.10618 108.039 1.31742C108.766 1.52866 109.31 1.83378 109.67 2.23278C110.038 2.63178 110.284 3.11684 110.409 3.68796C110.542 4.25126 110.609 5.1275 110.609 6.31668V7.97137C110.609 9.18402 110.484 10.0681 110.233 10.6236C109.983 11.179 109.521 11.6054 108.849 11.9027C108.184 12.2 107.311 12.3487 106.232 12.3487H104.906V20.0001H99.965V1.00056ZM104.906 4.25126V9.08623C105.046 9.09405 105.168 9.09796 105.269 9.09796C105.723 9.09796 106.036 8.98843 106.208 8.76937C106.388 8.54249 106.478 8.07699 106.478 7.37286V5.81206C106.478 5.16271 106.376 4.74023 106.173 4.54464C105.97 4.34905 105.547 4.25126 104.906 4.25126Z" fill="#BCA172"/>
        <path d="M122.461 1.00056V4.80282H119.527V20.0001H114.587V4.80282H111.665V1.00056H122.461Z" fill="#BCA172"/>
    </symbol>

    <symbol id="cart" viewBox="0 0 30 27" fill="none">
        <path d="M12.4136 24.9231C12.4136 25.3339 12.2923 25.7354 12.065 26.077C11.8376 26.4185 11.5145 26.6847 11.1364 26.8419C10.7584 26.9991 10.3424 27.0402 9.94107 26.9601C9.53973 26.88 9.17108 26.6821 8.88174 26.3917C8.59239 26.1012 8.39534 25.7311 8.31551 25.3283C8.23568 24.9254 8.27665 24.5078 8.43325 24.1283C8.58984 23.7488 8.85502 23.4244 9.19526 23.1962C9.53549 22.968 9.9355 22.8462 10.3447 22.8462C10.8934 22.8462 11.4197 23.065 11.8077 23.4545C12.1957 23.844 12.4136 24.3722 12.4136 24.9231ZM23.7928 22.8462C23.3836 22.8462 22.9836 22.968 22.6434 23.1962C22.3031 23.4244 22.0379 23.7488 21.8813 24.1283C21.7248 24.5078 21.6838 24.9254 21.7636 25.3283C21.8434 25.7311 22.0405 26.1012 22.3298 26.3917C22.6192 26.6821 22.9878 26.88 23.3892 26.9601C23.7905 27.0402 24.2065 26.9991 24.5846 26.8419C24.9626 26.6847 25.2857 26.4185 25.5131 26.077C25.7404 25.7354 25.8617 25.3339 25.8617 24.9231C25.8617 24.3722 25.6438 23.844 25.2558 23.4545C24.8678 23.065 24.3415 22.8462 23.7928 22.8462ZM29.9544 6.53582L26.2652 18.5703C26.072 19.2082 25.679 19.7667 25.1447 20.1628C24.6104 20.5589 23.9631 20.7716 23.2988 20.7692H10.871C10.1973 20.7667 9.54246 20.5451 9.00468 20.1377C8.4669 19.7303 8.07505 19.159 7.88783 18.5093L3.20944 2.07692H1.03447C0.760111 2.07692 0.49699 1.96751 0.302989 1.77276C0.108988 1.57802 0 1.31388 0 1.03846C0 0.763044 0.108988 0.498908 0.302989 0.304158C0.49699 0.109409 0.760111 0 1.03447 0H3.20944C3.65867 0.00149597 4.09534 0.149004 4.45408 0.420444C4.81282 0.691885 5.07435 1.07266 5.1995 1.50577L6.2482 5.19231H28.9651C29.127 5.19225 29.2867 5.23033 29.4312 5.30348C29.5758 5.37664 29.7012 5.48283 29.7974 5.61352C29.8936 5.7442 29.958 5.89573 29.9852 6.05592C30.0125 6.21611 30.0019 6.38048 29.9544 6.53582ZM27.5647 7.26923H6.83914L9.8766 17.9394C9.93839 18.1563 10.0689 18.3471 10.2483 18.4829C10.4277 18.6188 10.6463 18.6923 10.871 18.6923H23.2988C23.5202 18.6924 23.7357 18.6212 23.9138 18.4892C24.0919 18.3572 24.223 18.1713 24.2881 17.9589L27.5647 7.26923Z" fill="#A2785C"/>
    </symbol>

    <symbol id="viber-logo" viewBox="0 0 17 19" fill="none">
        <path fill-rule="evenodd" clip-rule="evenodd" d="M12.9486 1.29942C10.1957 0.684048 7.34089 0.684048 4.58798 1.29942L4.29136 1.36504C3.517 1.53817 2.80579 1.92258 2.23674 2.47556C1.66769 3.02855 1.26308 3.72846 1.06786 4.49754C0.370041 7.24725 0.370041 10.1277 1.06786 12.8774C1.25403 13.6109 1.63084 14.2821 2.16006 14.823C2.68928 15.3639 3.35211 15.7553 4.08136 15.9574L4.48823 18.3864C4.50122 18.4635 4.53465 18.5358 4.58504 18.5956C4.63542 18.6554 4.70093 18.7007 4.77473 18.7266C4.84853 18.7525 4.92793 18.7581 5.00465 18.7429C5.08138 18.7277 5.15263 18.6923 5.21098 18.6402L7.60061 16.5025C9.39443 16.612 11.1947 16.4686 12.9486 16.0764L13.2461 16.0108C14.0205 15.8377 14.7317 15.4533 15.3007 14.9003C15.8698 14.3473 16.2744 13.6474 16.4696 12.8783C17.1673 10.1286 17.1673 7.24814 16.4696 4.49842C16.2743 3.72922 15.8696 3.02923 15.3004 2.47624C14.7311 1.92325 14.0198 1.5389 13.2452 1.36592L12.9486 1.29942ZM5.32648 4.42667C5.16386 4.403 4.99804 4.43573 4.85661 4.51942H4.84436C4.51623 4.71192 4.22048 4.95429 3.96848 5.23954C3.75848 5.48192 3.64473 5.72692 3.61498 5.96317C3.59748 6.10317 3.60973 6.24492 3.65086 6.37879L3.66661 6.38754C3.90286 7.08142 4.21086 7.74904 4.58711 8.37729C5.07225 9.25972 5.66927 10.0758 6.36336 10.8054L6.38436 10.8352L6.41761 10.8597L6.43773 10.8833L6.46223 10.9043C7.19437 11.6005 8.0124 12.2003 8.89648 12.6893C9.90711 13.2397 10.5205 13.4995 10.8889 13.608V13.6133C10.9965 13.6465 11.0945 13.6614 11.1934 13.6614C11.5071 13.6382 11.804 13.5107 12.0369 13.2992C12.3212 13.0472 12.5619 12.7505 12.7491 12.4207V12.4145C12.925 12.082 12.8655 11.7688 12.6117 11.5562C12.102 11.1108 11.5509 10.7153 10.9659 10.3749C10.5739 10.1623 10.1757 10.2909 10.0147 10.5062L9.67086 10.9402C9.49411 11.1554 9.17386 11.1257 9.17386 11.1257L9.16511 11.1309C6.77548 10.521 6.13761 8.10167 6.13761 8.10167C6.13761 8.10167 6.10786 7.77267 6.32923 7.60467L6.75973 7.25817C6.96623 7.09017 7.10973 6.69292 6.88836 6.30092C6.55026 5.71533 6.15549 5.16436 5.70973 4.65592C5.61251 4.53626 5.47616 4.45476 5.32473 4.42579L5.32648 4.42667ZM9.36373 3.37492C9.2477 3.37492 9.13642 3.42101 9.05437 3.50306C8.97232 3.58511 8.92623 3.69639 8.92623 3.81242C8.92623 3.92845 8.97232 4.03973 9.05437 4.12178C9.13642 4.20382 9.2477 4.24992 9.36373 4.24992C10.4706 4.24992 11.3894 4.61129 12.1165 5.30429C12.4901 5.68317 12.7815 6.13204 12.9722 6.62379C13.1639 7.11642 13.2514 7.64229 13.2286 8.16904C13.2262 8.2265 13.2351 8.28386 13.2549 8.33786C13.2746 8.39187 13.3048 8.44145 13.3438 8.48378C13.4224 8.56928 13.5317 8.62004 13.6477 8.62492C13.7638 8.62979 13.877 8.58837 13.9625 8.50977C14.048 8.43117 14.0987 8.32182 14.1036 8.20579C14.1307 7.55784 14.0232 6.91131 13.7877 6.30704C13.5513 5.69991 13.1927 5.14777 12.7342 4.68479L12.7255 4.67604C11.8234 3.81417 10.6815 3.37492 9.36373 3.37492ZM9.33398 4.81342C9.21795 4.81342 9.10667 4.85951 9.02462 4.94156C8.94257 5.02361 8.89648 5.13489 8.89648 5.25092C8.89648 5.36695 8.94257 5.47823 9.02462 5.56028C9.10667 5.64232 9.21795 5.68842 9.33398 5.68842H9.34886C10.1469 5.74529 10.7279 6.01129 11.1347 6.44792C11.5521 6.89767 11.7682 7.45679 11.7516 8.14804C11.7489 8.26407 11.7925 8.37641 11.8726 8.46035C11.9528 8.54428 12.063 8.59294 12.179 8.5956C12.2951 8.59827 12.4074 8.55474 12.4913 8.47458C12.5753 8.39442 12.6239 8.2842 12.6266 8.16817C12.6476 7.26079 12.3554 6.47767 11.7761 5.85292V5.85117C11.1837 5.21592 10.3709 4.87992 9.39261 4.81429L9.37773 4.81254L9.33398 4.81342ZM9.31736 6.27904C9.25881 6.27388 9.19982 6.28056 9.14391 6.2987C9.088 6.31683 9.03632 6.34605 8.99195 6.3846C8.94758 6.42315 8.91144 6.47025 8.88567 6.52308C8.85991 6.57591 8.84505 6.63339 8.84199 6.69208C8.83894 6.75078 8.84774 6.80949 8.86787 6.86472C8.888 6.91994 8.91906 6.97053 8.95918 7.01349C8.9993 7.05644 9.04767 7.09087 9.10139 7.11472C9.15511 7.13857 9.21309 7.15135 9.27186 7.15229C9.63761 7.17154 9.87123 7.28179 10.0182 7.42967C10.1661 7.57842 10.2764 7.81729 10.2965 8.19092C10.2976 8.24963 10.3105 8.30752 10.3344 8.36114C10.3584 8.41476 10.3928 8.46301 10.4358 8.50302C10.4788 8.54303 10.5294 8.57398 10.5846 8.59402C10.6398 8.61406 10.6985 8.62278 10.7571 8.61967C10.8157 8.61655 10.8732 8.60166 10.9259 8.57589C10.9787 8.55012 11.0257 8.51399 11.0642 8.46965C11.1027 8.42532 11.1319 8.37368 11.15 8.31783C11.1682 8.26197 11.1749 8.20304 11.1697 8.14454C11.1417 7.61954 10.9772 7.15579 10.6404 6.81454C10.3017 6.47329 9.84061 6.30704 9.31736 6.27904Z" fill="#A2785C"/>
    </symbol>

    <symbol id="wa-logo" viewBox="0 0 18 19" fill="none">
        <path d="M8.85798 0.75C13.6906 0.75 17.608 4.66738 17.608 9.5C17.608 14.3326 13.6906 18.25 8.85798 18.25C7.31166 18.2525 5.79256 17.8433 4.45673 17.0644L0.111484 18.25L1.29448 13.903C0.51494 12.5668 0.1054 11.047 0.107983 9.5C0.107983 4.66738 4.02536 0.75 8.85798 0.75ZM5.87598 5.3875L5.70098 5.3945C5.58769 5.4014 5.47697 5.43116 5.37548 5.482C5.28056 5.53575 5.19392 5.60295 5.11823 5.6815C5.01323 5.78038 4.95373 5.86613 4.88986 5.94925C4.56622 6.37004 4.39196 6.88665 4.39461 7.4175C4.39636 7.84625 4.50836 8.26363 4.68336 8.65387C5.04123 9.44312 5.63011 10.2787 6.40711 11.0531C6.59436 11.2395 6.77811 11.4268 6.97586 11.6009C7.94132 12.4509 9.09183 13.0639 10.3359 13.3911L10.8329 13.4673C10.9947 13.476 11.1566 13.4637 11.3194 13.4559C11.5742 13.4427 11.823 13.3737 12.0482 13.2538C12.1628 13.1947 12.2746 13.1305 12.3834 13.0612C12.3834 13.0612 12.421 13.0367 12.4927 12.9825C12.6109 12.895 12.6835 12.8329 12.7815 12.7305C12.8541 12.6553 12.9171 12.5669 12.9652 12.4663C13.0335 12.3236 13.1017 12.0515 13.1297 11.8249C13.1507 11.6516 13.1446 11.5571 13.142 11.4985C13.1385 11.4049 13.0606 11.3077 12.9757 11.2666L12.4665 11.0382C12.4665 11.0382 11.7052 10.7066 11.2397 10.4949C11.191 10.4736 11.1388 10.4614 11.0857 10.459C11.0259 10.4529 10.9654 10.4596 10.9083 10.4788C10.8513 10.4979 10.799 10.5291 10.755 10.5701C10.7506 10.5684 10.692 10.6182 10.0594 11.3848C10.023 11.4335 9.97303 11.4704 9.91569 11.4907C9.85834 11.5109 9.79626 11.5137 9.73736 11.4985C9.68036 11.4832 9.62451 11.4639 9.57023 11.4408C9.46173 11.3953 9.42411 11.3777 9.34973 11.3462C8.84754 11.1271 8.38258 10.831 7.97161 10.4686C7.86136 10.3724 7.75898 10.2674 7.65398 10.1659C7.30975 9.8362 7.00974 9.46325 6.76148 9.05638L6.70986 8.97325C6.67278 8.91739 6.6428 8.85714 6.62061 8.79387C6.58736 8.66525 6.67398 8.562 6.67398 8.562C6.67398 8.562 6.88661 8.32925 6.98548 8.20325C7.08173 8.08075 7.16311 7.96175 7.21561 7.87688C7.31886 7.71063 7.35123 7.54 7.29698 7.40788C7.05198 6.80938 6.79823 6.2135 6.53748 5.622C6.48586 5.50475 6.33273 5.42075 6.19361 5.40412C6.14636 5.39887 6.09911 5.39362 6.05186 5.39012C5.93435 5.38429 5.8166 5.38546 5.69923 5.39363L5.87511 5.38662L5.87598 5.3875Z" fill="#A2785C"/>
    </symbol>

    <symbol id="shield" viewBox="0 0 45 45" fill="none">
        <g clip-path="url(#clip0_2_300)">
        <path d="M42.1677 6.91172C30.8524 5.28838 22.9795 0.171826 22.9015 0.120498C22.658 -0.040166 22.3422 -0.040166 22.0987 0.120498C22.0207 0.171914 14.167 5.28565 2.83242 6.91163C2.06285 7.02211 1.51467 7.6957 1.55739 8.47855C1.65881 10.3377 1.9906 15.2374 2.87759 20.5645C4.00989 27.365 5.61433 32.3391 7.64627 35.3485C9.9382 38.7429 17.0563 43.4188 22.2932 44.9699C22.3607 44.99 22.4305 45 22.5001 45C22.5698 45 22.6396 44.99 22.7071 44.97C27.944 43.4188 35.0621 38.743 37.354 35.3486C39.386 32.3391 40.9904 27.3651 42.1227 20.5646C43.0098 15.2374 43.3415 10.3378 43.4429 8.47855C43.4855 7.69579 42.9373 7.02211 42.1677 6.91172ZM36.1457 34.5327C34.0727 37.6029 27.3733 41.9987 22.5001 43.5094C17.6269 41.9986 10.9275 37.6029 8.85442 34.5327C4.28226 27.761 3.18635 11.5751 3.01303 8.39909C3.01136 8.36956 3.02789 8.35629 3.0394 8.35471C13.3656 6.8734 20.7266 2.67917 22.5001 1.59082C24.2736 2.67917 31.6345 6.8734 41.9606 8.35462C41.9722 8.35638 41.9887 8.36947 41.9871 8.399C41.8138 11.5751 40.7178 27.7611 36.1457 34.5327Z" fill="#A2785C"/>
        <path d="M22.5 8.55273C22.0974 8.55273 21.771 8.87907 21.771 9.2817V40.3832C21.771 40.7857 22.0973 41.1122 22.5 41.1122C22.9025 41.1122 23.2289 40.7858 23.2289 40.3832V9.2817C23.2289 8.87907 22.9025 8.55273 22.5 8.55273Z" fill="#A2785C"/>
        <path d="M22.5 3.8877C22.0974 3.8877 21.771 4.21403 21.771 4.61666V6.17171C21.771 6.57425 22.0973 6.90067 22.5 6.90067C22.9025 6.90067 23.2289 6.57434 23.2289 6.17171V4.61666C23.2289 4.21403 22.9025 3.8877 22.5 3.8877Z" fill="#A2785C"/>
        </g>
        <defs>
        <clipPath id="clip0_2_300">
        <rect width="45" height="45" fill="white"/>
        </clipPath>
        </defs>
    </symbol>

    <symbol id="arrows" viewBox="0 0 46 45" fill="none">
        <path d="M45.1922 0.4635C45.1164 0.27975 44.9702 0.1335 44.7864 0.05775C44.6949 0.02025 44.5974 0 44.4999 0H29.4999C29.0852 0 28.7499 0.336 28.7499 0.75C28.7499 1.164 29.0852 1.5 29.4999 1.5H42.6894L25.9697 18.2197C25.6764 18.513 25.6764 18.987 25.9697 19.2803C26.1159 19.4265 26.3079 19.5 26.4999 19.5C26.6919 19.5 26.8839 19.4265 27.0302 19.2803L43.7499 2.5605V15.75C43.7499 16.164 44.0852 16.5 44.4999 16.5C44.9147 16.5 45.2499 16.164 45.2499 15.75V0.75C45.2499 0.6525 45.2304 0.555 45.1922 0.4635Z" fill="#A2785C"/>
        <path d="M18.4697 25.7199L1.75 42.4397V29.2502C1.75 28.8362 1.41475 28.5002 1 28.5002C0.58525 28.5002 0.25 28.8362 0.25 29.2502V44.2502C0.25 44.3477 0.27025 44.4452 0.30775 44.5367C0.3835 44.7204 0.52975 44.8667 0.7135 44.9424C0.805 44.9799 0.9025 45.0002 1 45.0002H16C16.4147 45.0002 16.75 44.6642 16.75 44.2502C16.75 43.8362 16.4147 43.5002 16 43.5002H2.8105L19.5303 26.7804C19.8235 26.4872 19.8235 26.0132 19.5303 25.7199C19.237 25.4267 18.763 25.4267 18.4697 25.7199Z" fill="#A2785C"/>
    </symbol>

    <symbol id="percent" viewBox="0 0 46 45" fill="none">
        <path d="M29.0383 14.1972C28.7231 13.9686 28.2844 14.0379 28.0564 14.3524L16.8064 29.8212C16.5778 30.135 16.6471 30.5751 16.9616 30.8031C17.0866 30.8937 17.2308 30.9377 17.3743 30.9377C17.592 30.9377 17.8061 30.8374 17.9435 30.6479L29.1935 15.1792C29.4222 14.8653 29.3528 14.4252 29.0383 14.1972Z" fill="#A2785C"/>
        <path d="M23 0C10.5736 0 0.5 10.0735 0.5 22.5C0.5 34.9264 10.5736 45 23 45C35.4264 45 45.5 34.9264 45.5 22.5C45.5 10.0735 35.4264 0 23 0ZM23 43.5938C11.3688 43.5938 1.90625 34.1312 1.90625 22.5C1.90625 10.8688 11.3688 1.40625 23 1.40625C34.6311 1.40625 44.0938 10.8688 44.0938 22.5C44.0938 34.1312 34.6311 43.5938 23 43.5938Z" fill="#A2785C"/>
        <path d="M19.4844 20.3906C21.426 20.3906 23 18.8166 23 16.875C23 14.9334 21.426 13.3594 19.4844 13.3594C17.5428 13.3594 15.9688 14.9334 15.9688 16.875C15.9688 18.8166 17.5428 20.3906 19.4844 20.3906ZM19.4844 14.7656C20.6475 14.7656 21.5938 15.7119 21.5938 16.875C21.5938 18.0381 20.6475 18.9844 19.4844 18.9844C18.3213 18.9844 17.375 18.0381 17.375 16.875C17.375 15.7119 18.3213 14.7656 19.4844 14.7656Z" fill="#A2785C"/>
        <path d="M27.2188 24.6094C25.2772 24.6094 23.7031 26.1834 23.7031 28.125C23.7031 30.0666 25.2772 31.6406 27.2188 31.6406C29.1604 31.6406 30.7344 30.0666 30.7344 28.125C30.7344 26.1834 29.1604 24.6094 27.2188 24.6094ZM27.2188 30.2344C26.0556 30.2344 25.1094 29.2881 25.1094 28.125C25.1094 26.9619 26.0556 26.0156 27.2188 26.0156C28.3819 26.0156 29.3281 26.9619 29.3281 28.125C29.3281 29.2881 28.3819 30.2344 27.2188 30.2344Z" fill="#A2785C"/>
    </symbol>

    <symbol id="vehicle" viewBox="0 0 48 33" fill="none">
        <path d="M46.4671 16.3563L43.4657 14.2429L42.0263 8.83037C41.8514 8.17511 41.4651 7.59588 40.9275 7.18247C40.3899 6.76907 39.7309 6.5446 39.0527 6.54387H31.8915V0.696635C31.8915 0.512394 31.8183 0.335698 31.688 0.20542C31.5577 0.0751421 31.381 0.00195312 31.1968 0.00195312H1.42472C1.24051 0.0020583 1.06388 0.0752815 0.933625 0.205537C0.80337 0.335792 0.730147 0.512426 0.730042 0.696635V27.0866C0.730147 27.2708 0.80337 27.4474 0.933625 27.5777C1.06388 27.708 1.24051 27.7812 1.42472 27.7813H7.76538C7.82649 29.1846 8.42696 30.5102 9.44157 31.4816C10.4562 32.453 11.8066 32.9952 13.2113 32.9952C14.6159 32.9952 15.9664 32.453 16.981 31.4816C17.9956 30.5102 18.5961 29.1846 18.6572 27.7813H33.9442C34.0041 29.1855 34.6041 30.5122 35.6189 31.4846C36.6337 32.457 37.9848 32.9998 39.3903 32.9998C40.7957 32.9998 42.1469 32.457 43.1616 31.4846C44.1764 30.5122 44.7764 29.1855 44.8364 27.7813H47.0752C47.2595 27.7813 47.4362 27.7081 47.5664 27.5778C47.6967 27.4475 47.7699 27.2708 47.7699 27.0866V18.8735C47.77 18.3803 47.6517 17.8943 47.425 17.4563C47.1983 17.0183 46.8698 16.6411 46.4671 16.3563ZM46.3806 18.8735V24.0102H43.5466C43.0358 23.4057 42.3993 22.9199 41.6814 22.5867C40.9636 22.2535 40.1817 22.0809 39.3903 22.0809C38.5989 22.0809 37.817 22.2535 37.0991 22.5867C36.3813 22.9199 35.7447 23.4057 35.2339 24.0102H31.8915V15.3612H42.6408L45.6668 17.4925C45.8877 17.6486 46.0678 17.8556 46.1921 18.096C46.3163 18.3363 46.3809 18.6029 46.3806 18.8735ZM18.2317 25.3995H30.5021V26.3919H18.546C18.4734 26.0518 18.3681 25.7194 18.2317 25.3995ZM40.6818 9.18723L41.9544 13.9718H31.8915V7.93403H39.0519C39.4236 7.93425 39.7849 8.05722 40.0797 8.28382C40.3744 8.51043 40.586 8.828 40.6818 9.18723ZM30.5021 1.39132V24.0102H17.3679C16.857 23.4057 16.2205 22.9199 15.5026 22.5867C14.7848 22.2535 14.0029 22.0809 13.2115 22.0809C12.4201 22.0809 11.6382 22.2535 10.9203 22.5867C10.2025 22.9199 9.56595 23.4057 9.05511 24.0102H2.1194V1.39132H30.5021ZM2.1194 25.3995H8.19291C8.05658 25.7195 7.95143 26.0518 7.87891 26.3919H2.1194V25.3995ZM13.2113 31.608C12.4065 31.608 11.6199 31.3694 10.9508 30.9223C10.2816 30.4752 9.76012 29.8397 9.45216 29.0962C9.1442 28.3527 9.06362 27.5346 9.22062 26.7453C9.37762 25.9561 9.76514 25.2311 10.3342 24.662C10.9032 24.093 11.6282 23.7055 12.4175 23.5485C13.2068 23.3915 14.0249 23.472 14.7684 23.78C15.5119 24.088 16.1473 24.6095 16.5944 25.2786C17.0415 25.9477 17.2801 26.7344 17.2801 27.5391C17.279 28.6179 16.8499 29.6522 16.0871 30.415C15.3243 31.1778 14.2901 31.6068 13.2113 31.608ZM31.8915 25.3995H34.3701C34.2336 25.7194 34.1284 26.0518 34.0557 26.3919H31.8915V25.3995ZM39.3905 31.608C38.5857 31.608 37.7991 31.3694 37.1299 30.9223C36.4608 30.4752 35.9393 29.8397 35.6313 29.0962C35.3234 28.3527 35.2428 27.5346 35.3998 26.7453C35.5568 25.9561 35.9443 25.2311 36.5134 24.662C37.0824 24.093 37.8074 23.7055 38.5967 23.5485C39.386 23.3915 40.2041 23.472 40.9476 23.78C41.691 24.088 42.3265 24.6095 42.7736 25.2786C43.2207 25.9477 43.4593 26.7344 43.4593 27.5391C43.4582 28.6179 43.0291 29.6522 42.2663 30.415C41.5035 31.1778 40.4692 31.6068 39.3905 31.608ZM44.7248 26.3919C44.6524 26.0517 44.5471 25.7194 44.4104 25.3995H46.3806V26.3919H44.7248Z" fill="#A2785C"/>
    </symbol>

    <symbol id="contract" viewBox="0 0 45 45" fill="none">
        <g clip-path="url(#clip0_2_549)">
        <path d="M0 35.8704C0 35.9485 0.0163079 36.0257 0.0476361 36.0974L3.68385 44.3358C3.70917 44.3929 3.74393 44.4453 3.78642 44.4912C4.0864 44.8148 4.53186 45.0002 5.00865 45.0002C5.48544 45.0002 5.9309 44.8148 6.23088 44.4912C6.27337 44.4453 6.30813 44.3929 6.33345 44.3358L9.96966 36.0974C10.001 36.0257 10.0173 35.9485 10.0173 35.8704V2.47364C10.0173 1.10979 8.71568 0 7.11579 0H2.90194C1.30162 0 0 1.10979 0 2.47364V35.8704ZM8.89249 35.0627H5.57127V8.08611H8.89249V35.0627ZM6.78878 40.5177H3.22852L1.3175 36.1875H8.6998L6.78878 40.5177ZM4.44603 35.0627H1.12481V8.08611H4.44603V35.0627ZM5.35111 43.7745C5.17602 43.902 4.84128 43.902 4.66619 43.7745L3.72505 41.6425H6.29225L5.35111 43.7745ZM2.90194 1.12481H7.11579C8.09512 1.12481 8.89249 1.72992 8.89249 2.47364V6.96087H1.12481V2.47364C1.12481 1.72992 1.92218 1.12481 2.90194 1.12481Z" fill="#A2785C"/>
        <path d="M45.0002 0.56262C45.0002 0.251913 44.7483 0 44.4376 0H13.6003C13.2896 0 13.0377 0.251913 13.0377 0.56262V44.4376C13.0377 44.7483 13.2896 45.0002 13.6003 45.0002H44.4376C44.7483 45.0002 45.0002 44.7483 45.0002 44.4376V0.56262ZM43.8749 43.8749H14.1629V1.12481H43.8749V43.8749Z" fill="#A2785C"/>
        <path d="M20.4732 35.3377H37.5647C37.8754 35.3377 38.1273 35.0858 38.1273 34.7751C38.1273 34.4644 37.8754 34.2129 37.5647 34.2129H20.4732C20.1625 34.2129 19.9106 34.4644 19.9106 34.7751C19.9106 35.0858 20.1625 35.3377 20.4732 35.3377Z" fill="#A2785C"/>
        <path d="M20.4732 29.2004H37.5647C37.8754 29.2004 38.1273 28.9485 38.1273 28.6378C38.1273 28.3271 37.8754 28.0752 37.5647 28.0752H20.4732C20.1625 28.0752 19.9106 28.3271 19.9106 28.6378C19.9106 28.9485 20.1625 29.2004 20.4732 29.2004Z" fill="#A2785C"/>
        <path d="M20.4732 23.0627H37.5647C37.8754 23.0627 38.1273 22.8108 38.1273 22.5001C38.1273 22.1894 37.8754 21.9375 37.5647 21.9375H20.4732C20.1625 21.9375 19.9106 22.1894 19.9106 22.5001C19.9106 22.8108 20.1625 23.0627 20.4732 23.0627Z" fill="#A2785C"/>
        <path d="M20.4732 16.9246H37.5647C37.8754 16.9246 38.1273 16.6731 38.1273 16.3624C38.1273 16.0517 37.8754 15.7998 37.5647 15.7998H20.4732C20.1625 15.7998 19.9106 16.0517 19.9106 16.3624C19.9106 16.6731 20.1625 16.9246 20.4732 16.9246Z" fill="#A2785C"/>
        <path d="M20.4732 10.7874H37.5647C37.8754 10.7874 38.1273 10.5355 38.1273 10.2248C38.1273 9.91408 37.8754 9.6626 37.5647 9.6626H20.4732C20.1625 9.6626 19.9106 9.91408 19.9106 10.2248C19.9106 10.5355 20.1625 10.7874 20.4732 10.7874Z" fill="#A2785C"/>
        </g>
        <defs>
        <clipPath id="clip0_2_549">
        <rect width="45" height="45" fill="white"/>
        </clipPath>
        </defs>
    </symbol>

    <symbol id="image-holder" viewBox="0 0 122 122" fill="none">
        <path d="M102.937 13.979C104.286 13.979 105.579 14.5146 106.532 15.4679C107.485 16.4212 108.021 17.7142 108.021 19.0623V102.937C108.021 104.286 107.485 105.578 106.532 106.532C105.579 107.485 104.286 108.021 102.937 108.021H19.0625C17.7143 108.021 16.4213 107.485 15.468 106.532C14.5147 105.578 13.9791 104.286 13.9791 102.937V19.0623C13.9791 17.7142 14.5147 16.4212 15.468 15.4679C16.4213 14.5146 17.7143 13.979 19.0625 13.979H102.937Z" stroke="#B9B9B9" stroke-width="2" stroke-linecap="round" stroke-linejoin="round"/>
        <path d="M42.4458 30.7544C40.1837 30.7544 37.9723 31.4252 36.0914 32.682C34.2106 33.9387 32.7446 35.725 31.8789 37.815C31.0132 39.9049 30.7867 42.2046 31.228 44.4232C31.6694 46.6419 32.7587 48.6799 34.3582 50.2794C35.9578 51.879 37.9958 52.9683 40.2144 53.4096C42.4331 53.8509 44.7328 53.6244 46.8227 52.7588C48.9127 51.8931 50.6989 50.4271 51.9557 48.5462C53.2125 46.6653 53.8833 44.454 53.8833 42.1919C53.8502 39.1687 52.6346 36.2787 50.4968 34.1409C48.359 32.0031 45.4689 30.7874 42.4458 30.7544ZM71.1666 53.3752L52.8666 71.6752C52.7069 71.8543 52.5111 71.9976 52.2921 72.0958C52.073 72.1939 51.8358 72.2446 51.5958 72.2446C51.3558 72.2446 51.1185 72.1939 50.8995 72.0958C50.6805 71.9976 50.4847 71.8543 50.3249 71.6752L46.7666 68.1169C46.6069 67.9378 46.4111 67.7945 46.1921 67.6964C45.973 67.5982 45.7358 67.5475 45.4958 67.5475C45.2558 67.5475 45.0185 67.5982 44.7995 67.6964C44.5805 67.7945 44.3847 67.9378 44.2249 68.1169L24.3999 87.9419C24.2209 88.1016 24.0775 88.2974 23.9794 88.5164C23.8813 88.7355 23.8306 88.9727 23.8306 89.2127C23.8306 89.4527 23.8813 89.69 23.9794 89.909C24.0775 90.128 24.2209 90.3238 24.3999 90.4836C24.7473 90.8024 25.1993 90.9832 25.6708 90.9919H96.3291C96.5647 90.9989 96.7992 90.9577 97.0182 90.8708C97.2373 90.7839 97.4362 90.6531 97.6028 90.4864C97.7695 90.3198 97.9003 90.1209 97.9872 89.9018C98.0741 89.6828 98.1153 89.4483 98.1083 89.2127C98.1463 88.8544 98.0563 88.4943 97.8541 88.1961L73.7083 53.6294C73.3882 53.2849 72.9534 53.069 72.4855 53.0222C72.0175 52.9754 71.5486 53.1009 71.1666 53.3752Z" stroke="#B9B9B9" stroke-width="2" stroke-linecap="round" stroke-linejoin="round"/>
    </symbol>

    <symbol id="arrow-left" viewBox="0 0 8 12" fill="none">
        <path d="M7 1.5L2 6.5L7 11" stroke-width="1.5" stroke-linecap="round"/>
    </symbol>

    <symbol id="arrow-right" viewBox="0 0 8 12" fill="none">
        <path d="M1 1.5L6 6.5L1 11" stroke-width="1.5" stroke-linecap="round"/>
    </symbol>

    <symbol id="vk-logo" viewBox="0 0 20 12" fill="none" xmlns="http://www.w3.org/2000/svg">
        <path fill-rule="evenodd" clip-rule="evenodd" d="M9.79595 11.4539H10.9317C10.9317 11.4539 11.2747 11.4157 11.4499 11.2241C11.6111 11.0482 11.6059 10.7179 11.6059 10.7179C11.6059 10.7179 11.5837 9.17136 12.291 8.94362C12.9882 8.71929 13.8835 10.4383 14.8325 11.0993C15.55 11.5995 16.0953 11.4898 16.0953 11.4898L18.6327 11.4539C18.6327 11.4539 19.96 11.371 19.3306 10.3119C19.2791 10.2252 18.9641 9.52841 17.4441 8.09655C15.8531 6.59795 16.0662 6.84035 17.9827 4.24809C19.1498 2.66939 19.6164 1.70557 19.4707 1.29277C19.3317 0.899596 18.4733 1.00352 18.4733 1.00352L15.6163 1.02158C15.6163 1.02158 15.4046 0.992261 15.2475 1.08754C15.094 1.18099 14.9952 1.39878 14.9952 1.39878C14.9952 1.39878 14.543 2.62044 13.94 3.65938C12.6678 5.85166 12.1592 5.96736 11.9513 5.83124C11.4677 5.51398 11.5884 4.55671 11.5884 3.87665C11.5884 1.75216 11.9059 0.866353 10.9701 0.637047C10.6595 0.560874 10.431 0.510615 9.63681 0.5025C8.61743 0.491768 7.75463 0.505641 7.2661 0.748559C6.94109 0.910067 6.69038 1.26999 6.84308 1.29067C7.03189 1.31633 7.45955 1.40768 7.68628 1.72101C7.97904 2.12518 7.96872 3.03298 7.96872 3.03298C7.96872 3.03298 8.1369 5.53388 7.57588 5.84459C7.19078 6.05767 6.66252 5.62262 5.52837 3.63373C4.94723 2.61494 4.50848 1.48883 4.50848 1.48883C4.50848 1.48883 4.42388 1.27837 4.27298 1.16581C4.08985 1.02943 3.83397 0.98598 3.83397 0.98598L1.11917 1.00404C1.11917 1.00404 0.71163 1.01556 0.562026 1.19539C0.42893 1.35533 0.55145 1.6862 0.55145 1.6862C0.55145 1.6862 2.67686 6.7325 5.08342 9.27554C7.29008 11.6071 9.79595 11.4539 9.79595 11.4539Z" fill="#E31E24"/>
        <path fill-rule="evenodd" clip-rule="evenodd" d="M9.79595 11.4539H10.9317C10.9317 11.4539 11.2747 11.4157 11.4499 11.2241C11.6111 11.0482 11.6059 10.7179 11.6059 10.7179C11.6059 10.7179 11.5837 9.17136 12.291 8.94362C12.9882 8.71929 13.8835 10.4383 14.8325 11.0993C15.55 11.5995 16.0953 11.4898 16.0953 11.4898L18.6327 11.4539C18.6327 11.4539 19.96 11.371 19.3306 10.3119C19.2791 10.2252 18.9641 9.52841 17.4441 8.09655C15.8531 6.59795 16.0662 6.84035 17.9827 4.24809C19.1498 2.66939 19.6164 1.70557 19.4707 1.29277C19.3317 0.899596 18.4733 1.00352 18.4733 1.00352L15.6163 1.02158C15.6163 1.02158 15.4046 0.992261 15.2475 1.08754C15.094 1.18099 14.9952 1.39878 14.9952 1.39878C14.9952 1.39878 14.543 2.62044 13.94 3.65938C12.6678 5.85166 12.1592 5.96736 11.9513 5.83124C11.4677 5.51398 11.5884 4.55671 11.5884 3.87665C11.5884 1.75216 11.9059 0.866353 10.9701 0.637047C10.6595 0.560874 10.431 0.510615 9.63681 0.5025C8.61743 0.491768 7.75463 0.505641 7.2661 0.748559C6.94109 0.910067 6.69038 1.26999 6.84308 1.29067C7.03189 1.31633 7.45955 1.40768 7.68628 1.72101C7.97904 2.12518 7.96872 3.03298 7.96872 3.03298C7.96872 3.03298 8.1369 5.53388 7.57588 5.84459C7.19078 6.05767 6.66252 5.62262 5.52837 3.63373C4.94723 2.61494 4.50848 1.48883 4.50848 1.48883C4.50848 1.48883 4.42388 1.27837 4.27298 1.16581C4.08985 1.02943 3.83397 0.98598 3.83397 0.98598L1.11917 1.00404C1.11917 1.00404 0.71163 1.01556 0.562026 1.19539C0.42893 1.35533 0.55145 1.6862 0.55145 1.6862C0.55145 1.6862 2.67686 6.7325 5.08342 9.27554C7.29008 11.6071 9.79595 11.4539 9.79595 11.4539Z" fill="#A2785C"/>
    </symbol>

    <symbol id="ig-logo" viewBox="0 0 18 18" fill="none" xmlns="http://www.w3.org/2000/svg">
        <path d="M12.4356 0.5H5.56439C2.77187 0.5 0.5 2.77187 0.5 5.56439V12.4356C0.5 15.2281 2.77187 17.5 5.56439 17.5H12.4356C15.2281 17.5 17.5 15.2281 17.5 12.4356V5.56439C17.5 2.77187 15.2281 0.5 12.4356 0.5ZM15.7898 12.4356C15.7898 14.2881 14.2881 15.7898 12.4356 15.7898H5.56439C3.71194 15.7898 2.2102 14.2881 2.2102 12.4356V5.56439C2.2102 3.71191 3.71194 2.2102 5.56439 2.2102H12.4356C14.2881 2.2102 15.7898 3.71191 15.7898 5.56439V12.4356Z" fill="url(#paint0_linear_53_95)"/>
        <path d="M12.4356 0.5H5.56439C2.77187 0.5 0.5 2.77187 0.5 5.56439V12.4356C0.5 15.2281 2.77187 17.5 5.56439 17.5H12.4356C15.2281 17.5 17.5 15.2281 17.5 12.4356V5.56439C17.5 2.77187 15.2281 0.5 12.4356 0.5ZM15.7898 12.4356C15.7898 14.2881 14.2881 15.7898 12.4356 15.7898H5.56439C3.71194 15.7898 2.2102 14.2881 2.2102 12.4356V5.56439C2.2102 3.71191 3.71194 2.2102 5.56439 2.2102H12.4356C14.2881 2.2102 15.7898 3.71191 15.7898 5.56439V12.4356Z" fill="#A2785C"/>
        <path d="M8.99995 4.60327C6.57555 4.60327 4.60315 6.57567 4.60315 9.00004C4.60315 11.4244 6.57555 13.3968 8.99995 13.3968C11.4244 13.3968 13.3968 11.4244 13.3968 9.00004C13.3968 6.57564 11.4244 4.60327 8.99995 4.60327ZM8.99995 11.6867C7.51617 11.6867 6.31335 10.4839 6.31335 9.00008C6.31335 7.51629 7.5162 6.31347 8.99995 6.31347C10.4837 6.31347 11.6866 7.51629 11.6866 9.00008C11.6866 10.4838 10.4837 11.6867 8.99995 11.6867Z" fill="url(#paint1_linear_53_95)"/>
        <path d="M8.99995 4.60327C6.57555 4.60327 4.60315 6.57567 4.60315 9.00004C4.60315 11.4244 6.57555 13.3968 8.99995 13.3968C11.4244 13.3968 13.3968 11.4244 13.3968 9.00004C13.3968 6.57564 11.4244 4.60327 8.99995 4.60327ZM8.99995 11.6867C7.51617 11.6867 6.31335 10.4839 6.31335 9.00008C6.31335 7.51629 7.5162 6.31347 8.99995 6.31347C10.4837 6.31347 11.6866 7.51629 11.6866 9.00008C11.6866 10.4838 10.4837 11.6867 8.99995 11.6867Z" fill="#A2785C"/>
        <path d="M13.4054 5.68965C13.9872 5.68965 14.4589 5.21795 14.4589 4.63608C14.4589 4.05422 13.9872 3.58252 13.4054 3.58252C12.8235 3.58252 12.3518 4.05422 12.3518 4.63608C12.3518 5.21795 12.8235 5.68965 13.4054 5.68965Z" fill="url(#paint2_linear_53_95)"/>
        <path d="M13.4054 5.68965C13.9872 5.68965 14.4589 5.21795 14.4589 4.63608C14.4589 4.05422 13.9872 3.58252 13.4054 3.58252C12.8235 3.58252 12.3518 4.05422 12.3518 4.63608C12.3518 5.21795 12.8235 5.68965 13.4054 5.68965Z" fill="#A2785C"/>
        <defs>
        <linearGradient id="paint0_linear_53_95" x1="9" y1="17.4505" x2="9" y2="0.632042" gradientUnits="userSpaceOnUse">
        <stop stop-color="#E09B3D"/>
        <stop offset="0.3" stop-color="#C74C4D"/>
        <stop offset="0.6" stop-color="#C21975"/>
        <stop offset="1" stop-color="#7024C4"/>
        </linearGradient>
        <linearGradient id="paint1_linear_53_95" x1="8.99995" y1="17.4506" x2="8.99995" y2="0.632119" gradientUnits="userSpaceOnUse">
        <stop stop-color="#E09B3D"/>
        <stop offset="0.3" stop-color="#C74C4D"/>
        <stop offset="0.6" stop-color="#C21975"/>
        <stop offset="1" stop-color="#7024C4"/>
        </linearGradient>
        <linearGradient id="paint2_linear_53_95" x1="13.4054" y1="17.4504" x2="13.4054" y2="0.631922" gradientUnits="userSpaceOnUse">
        <stop stop-color="#E09B3D"/>
        <stop offset="0.3" stop-color="#C74C4D"/>
        <stop offset="0.6" stop-color="#C21975"/>
        <stop offset="1" stop-color="#7024C4"/>
        </linearGradient>
        </defs>
    </symbol>

    <symbol id="seotlt-logo" viewBox="0 0 68 29" fill="none" xmlns="http://www.w3.org/2000/svg">
        <g clip-path="url(#clip0_53_138)">
        <path d="M44.2296 9.86699L48.2935 7.70293C48.6102 7.54279 48.77 7.27855 48.8156 7.1602C48.9174 6.8952 49.0068 6.62545 49.0774 6.34887C49.2107 5.8259 49.0961 5.38214 48.7727 4.99196C48.0586 4.13047 47.1009 3.88561 45.9792 4.08868C45.416 4.19069 45.2749 4.33734 45.2495 4.91407C45.1761 6.57948 44.4725 8.08912 43.8262 9.61719C43.8029 9.67133 43.7943 9.99711 44.2296 9.86699Z" fill="#3F3F3F"/>
        <path d="M39.1616 12.2351C39.1616 11.5499 39.0621 10.8818 38.6565 10.3226C38.2043 9.69891 37.3245 9.42441 36.6253 9.7766C36.2078 9.98708 35.8011 10.0391 35.3764 10.0557C34.3384 10.0961 33.3792 10.4548 32.4825 10.9908C30.1294 12.3971 28.8355 14.0861 27.9666 16.6079C27.9245 16.73 27.7806 17.2452 27.7026 17.3417C26.9668 18.2512 25.0967 20.5078 23.4909 21.0015C22.5951 21.277 21.878 20.9512 21.4885 20.1573C21.0932 19.3515 21.1433 19.2041 21.9678 18.8194C23.5015 18.1038 24.885 17.1724 26.009 15.8782C26.9149 14.8351 27.5718 13.6832 27.6149 12.3088C27.6475 11.2676 27.2404 10.4586 26.3053 10.0108C25.6939 9.71809 25.0218 9.63945 24.3144 9.76368C23.0498 9.98556 21.9787 10.6003 21.0432 11.4939C19.5627 12.9081 18.625 14.6174 18.0286 16.5188C17.5399 18.0765 17.4314 19.6101 18.0177 21.0821C18.7035 22.8039 20.0264 23.5909 22.1739 23.0321C24.9379 22.3127 26.5913 19.8621 27.3203 19.1222C27.3723 19.0694 27.4488 19.0402 27.5138 18.9999C27.5298 19.0594 27.5517 19.1175 27.5609 19.1783C27.6393 19.6971 27.6721 20.2301 27.8015 20.7324C28.0202 21.5798 28.4475 22.2971 29.1942 22.7895C30.1185 23.3989 31.1493 23.3436 32.2045 23.0683C34.1117 22.571 35.5509 21.3807 36.7323 19.8198C37.777 18.4395 38.4052 16.8921 38.8422 15.2717C38.9227 14.9729 39.1616 13.5742 39.1616 12.2351ZM21.6978 16.2112C22.1638 14.7365 22.7812 13.3175 23.6913 12.0282C23.929 11.6912 24.2248 11.3759 24.5449 11.1141C24.9289 10.8001 25.1888 10.9204 25.2323 11.389C25.2517 11.5982 25.2281 11.8141 25.2265 11.8903C25.136 12.9393 24.7298 13.7579 24.3916 14.6165C23.5954 16.6373 21.4025 18.0558 21.3102 18.09C21.3039 18.0073 21.5287 16.7465 21.6978 16.2112ZM37.43 15.6508C37.0152 17.0839 36.4522 18.4423 35.4598 19.612C34.8523 20.3279 34.1663 20.9487 33.2143 21.1558C32.5393 21.3024 32.0495 21.1151 31.6971 20.5622C31.363 20.0379 31.2948 19.4311 31.2776 18.8126C31.2711 18.5801 31.3068 18.3434 31.3234 18.1084C31.3667 17.0921 31.6887 16.1231 32.0531 15.1643C32.5658 13.8154 32.9944 12.8933 33.9161 11.7427C34.3196 11.2391 34.7703 10.7785 35.4218 10.6069C35.7097 10.5311 35.7685 10.5919 35.6642 10.879C35.1446 12.3094 35.8129 13.0635 36.8835 13.8397C37.5922 14.354 37.6567 14.8674 37.43 15.6508Z" fill="#3F3F3F"/>
        <path d="M48.9517 8.39797C48.8724 8.43217 48.7981 8.4732 48.7267 8.51784L40.1247 13.0986C39.7618 13.255 39.5752 13.6664 39.7077 14.0175C39.8402 14.3685 40.242 14.5264 40.6048 14.37L49.7739 11.2911C49.8542 11.2702 49.9344 11.2448 50.0138 11.2106C50.8165 10.8646 51.2293 9.95453 50.936 9.17796C50.6428 8.4012 49.7545 8.05205 48.9517 8.39797Z" fill="#3F3F3F"/>
        <path d="M65.5855 29.1369C64.6187 28.7965 64.2045 28.2481 64.2379 27.3528C64.2711 26.4679 64.9493 25.7926 65.8027 25.7947C66.651 25.7966 67.3252 26.4833 67.3481 27.3685C67.3708 28.2501 67.0133 28.7389 66.0546 29.1371C65.8984 29.1369 65.7421 29.1369 65.5855 29.1369ZM66.5839 27.3756C66.5801 27.3457 66.5765 27.2477 66.5536 27.1543C66.451 26.7379 66.181 26.5059 65.805 26.5036C65.4099 26.5012 65.151 26.7308 65.0402 27.1668C64.9621 27.4743 65 27.7642 65.1506 28.0391C65.2959 28.3043 65.5337 28.4245 65.8287 28.4105C66.2977 28.3884 66.585 28.0116 66.5839 27.3756Z" fill="#3F3F3F"/>
        <path d="M35.9271 29.1371C35.325 28.9903 34.8592 28.6791 34.6391 28.0735C34.3844 27.3722 34.5773 26.6129 35.1228 26.164C35.6811 25.7047 36.551 25.6654 37.2561 26.0806C37.2372 26.3093 37.2174 26.5485 37.1939 26.8306C36.6268 26.4224 36.0583 26.2058 35.5192 26.7994C35.2249 27.1235 35.2285 27.7268 35.4802 28.0843C35.7315 28.4415 36.1641 28.5526 36.6709 28.3811C36.6709 28.2439 36.6709 28.1009 36.6709 27.9269C36.4985 27.9269 36.3189 27.9269 36.1157 27.9269C36.1157 27.7101 36.1157 27.5236 36.1157 27.3175C36.5475 27.3175 36.9722 27.3175 37.4177 27.3175C37.4177 27.8072 37.4177 28.2893 37.4177 28.8248C37.1094 28.9247 36.7822 29.0309 36.4549 29.1371C36.2791 29.1371 36.1031 29.1371 35.9271 29.1371Z" fill="#3F3F3F"/>
        <path d="M56.776 29.1369C55.9318 28.7994 55.7256 28.4905 55.7232 27.5542C55.7218 27.012 55.723 26.4697 55.723 25.9121C55.9844 25.9121 56.2138 25.9121 56.478 25.9121C56.478 26.4573 56.4746 26.9896 56.4801 27.5219C56.4818 27.6858 56.4864 27.8547 56.5266 28.012C56.6088 28.333 56.8269 28.4806 57.1503 28.4669C57.4501 28.4542 57.6857 28.2585 57.7122 27.9377C57.7473 27.5124 57.7433 27.0838 57.7519 26.6566C57.7567 26.4159 57.7528 26.175 57.7528 25.9157C57.975 25.9157 58.1655 25.9157 58.3841 25.9157C58.3914 25.9995 58.4046 26.0823 58.4047 26.1651C58.4059 26.6805 58.4129 27.1961 58.4015 27.7113C58.383 28.5368 58.1275 28.8611 57.3042 29.1367C57.128 29.1369 56.952 29.1369 56.776 29.1369Z" fill="#3F3F3F"/>
        <path d="M50.3753 29.137C50.21 29.0872 50.0448 29.0373 49.8469 28.9776C49.8256 28.7329 49.8033 28.4772 49.7798 28.2075C50.029 28.2951 50.2429 28.3832 50.4643 28.4427C50.5722 28.4717 50.7047 28.4761 50.8077 28.4396C50.9143 28.4018 51.0621 28.3116 51.0766 28.2254C51.0945 28.118 51.026 27.9507 50.9377 27.8811C50.7408 27.7261 50.5059 27.6194 50.2908 27.486C50.0439 27.3331 49.8416 27.1418 49.7823 26.8401C49.6795 26.3166 50.0038 25.852 50.5516 25.8151C50.8922 25.7923 51.239 25.8611 51.5864 25.889C51.5864 26.1787 51.5864 26.3992 51.5864 26.6481C51.4464 26.5843 51.3292 26.5159 51.2028 26.4771C51.056 26.4321 50.8998 26.3861 50.7499 26.392C50.655 26.3958 50.4998 26.4823 50.4868 26.5523C50.4696 26.6464 50.5352 26.8008 50.6163 26.8588C50.908 27.0679 51.2501 27.2138 51.5197 27.4452C52.0473 27.8981 51.8926 28.7327 51.255 29.0105C51.141 29.0602 51.0203 29.095 50.9027 29.1368C50.7271 29.137 50.5511 29.137 50.3753 29.137Z" fill="#3F3F3F"/>
        <path d="M29.6291 29.0482C29.6291 27.969 29.6291 26.9592 29.6291 25.9085C30.294 25.9089 30.9565 25.7974 31.5751 26.1268C32.1389 26.4269 32.4293 27.0409 32.333 27.7044C32.2436 28.3218 31.789 28.8368 31.1401 28.9468C30.656 29.0288 30.1555 29.0165 29.6291 29.0482ZM30.3714 28.3693C30.811 28.3469 31.224 28.314 31.4626 27.9079C31.649 27.5906 31.6418 27.247 31.4364 26.9444C31.1863 26.5758 30.7912 26.5344 30.3714 26.5401C30.3714 27.1511 30.3714 27.7392 30.3714 28.3693Z" fill="#3F3F3F"/>
        <path d="M59.3474 29.0172C59.3474 27.9658 59.3474 26.9563 59.3474 25.9117C59.9566 25.9029 60.5595 25.8157 61.1372 26.0532C61.7872 26.3203 62.1255 26.9211 62.0555 27.6498C61.9945 28.2857 61.5212 28.8037 60.8554 28.9562C60.7231 28.9866 60.5864 29.0115 60.4512 29.0145C60.0922 29.0225 59.7329 29.0172 59.3474 29.0172ZM60.0973 26.5456C60.0973 27.1637 60.0973 27.7591 60.0973 28.3533C60.8602 28.3766 61.2909 28.0499 61.2961 27.4595C61.3014 26.8512 60.8732 26.5203 60.0973 26.5456Z" fill="#3F3F3F"/>
        <path d="M45.4859 29.0059C45.2064 29.0059 44.9671 29.0059 44.7122 29.0059C44.6476 28.8621 44.5812 28.7145 44.5141 28.5656C44.078 28.5656 43.6603 28.5656 43.2156 28.5656C43.1521 28.7026 43.0839 28.8498 43.0105 29.0078C42.7838 29.0078 42.5538 29.0078 42.2823 29.0078C42.815 27.9228 43.3348 26.8641 43.8944 25.7241C44.4424 26.854 44.9576 27.9163 45.4859 29.0059ZM43.4441 28.0105C43.7386 28.0105 43.9949 28.0105 44.2815 28.0105C44.1427 27.6866 44.0159 27.3909 43.8607 27.029C43.7058 27.3933 43.5796 27.6906 43.4441 28.0105Z" fill="#3F3F3F"/>
        <path d="M41.4424 29.0092C41.1635 29.0092 40.9413 29.0092 40.687 29.0092C40.687 28.1781 40.687 27.3573 40.687 26.5148C40.3464 26.5148 40.0374 26.5148 39.706 26.5148C39.706 26.3064 39.706 26.1195 39.706 25.9143C40.6075 25.9143 41.5015 25.9143 42.4169 25.9143C42.4169 26.0988 42.4169 26.2788 42.4169 26.4935C42.1105 26.4935 41.7942 26.4935 41.4422 26.4935C41.4424 27.3462 41.4424 28.1665 41.4424 29.0092Z" fill="#3F3F3F"/>
        <path d="M53.3175 26.5092C52.9665 26.5092 52.6572 26.5092 52.3291 26.5092C52.3291 26.3086 52.3291 26.1289 52.3291 25.9224C53.226 25.9224 54.1263 25.9224 55.0455 25.9224C55.0455 26.104 55.0455 26.2842 55.0455 26.4983C54.7304 26.4983 54.414 26.4983 54.0628 26.4983C54.0628 27.3513 54.0628 28.1721 54.0628 29.0058C53.798 29.0058 53.5688 29.0058 53.3175 29.0058C53.3175 28.1793 53.3175 27.3657 53.3175 26.5092Z" fill="#3F3F3F"/>
        <path d="M46.7869 28.3694C47.2191 28.3694 47.6138 28.3694 48.022 28.3694C48.022 28.5921 48.022 28.7834 48.022 28.9977C47.3774 28.9977 46.7304 28.9977 46.064 28.9977C46.064 27.9732 46.064 26.9495 46.064 25.9111C46.3035 25.9111 46.5257 25.9111 46.7869 25.9111C46.7869 26.7209 46.7869 27.5298 46.7869 28.3694Z" fill="#3F3F3F"/>
        <path d="M33.0798 25.9087C33.3315 25.9087 33.5536 25.9087 33.795 25.9087C33.795 26.9362 33.795 27.9542 33.795 28.9962C33.5691 28.9962 33.333 28.9962 33.0798 28.9962C33.0798 27.9745 33.0798 26.958 33.0798 25.9087Z" fill="#3F3F3F"/>
        <path d="M38.3141 25.9143C38.552 25.9143 38.7808 25.9143 39.026 25.9143C39.026 26.9445 39.026 27.9619 39.026 28.9999C38.7965 28.9999 38.5669 28.9999 38.3141 28.9999C38.3141 27.9807 38.3141 26.9566 38.3141 25.9143Z" fill="#3F3F3F"/>
        <path d="M62.8031 25.9172C62.8868 25.9097 62.9625 25.8987 63.0384 25.8974C63.1921 25.8944 63.3458 25.8965 63.5153 25.8965C63.5153 26.9447 63.5153 27.9623 63.5153 29.0001C63.2853 29.0001 63.0559 29.0001 62.8033 29.0001C62.8031 27.9807 62.8031 26.9566 62.8031 25.9172Z" fill="#3F3F3F"/>
        <path d="M67.4053 16.4332C67.2825 16.3287 67.0175 16.4511 66.8804 16.5457C66.6112 16.7315 66.3564 16.9619 66.1452 17.2062C65.1666 18.337 64.2043 19.2663 63.0943 20.1495C62.715 20.4511 62.3085 20.7268 61.8881 20.964C61.4959 21.1853 61.1967 21.055 61.1376 20.6291C61.0865 20.26 61.0894 19.8655 61.1517 19.4903C61.518 17.2877 62.3697 15.2053 63.1946 13.1164C63.2237 13.0424 63.3482 12.7605 63.5214 12.3733L66.7433 11.2915C66.8236 11.2706 66.9038 11.2451 66.9832 11.2109C67.7859 10.865 68.1987 9.95489 67.9054 9.17832C67.6122 8.40156 66.7238 8.0524 65.9211 8.39852C65.8418 8.43271 65.7674 8.47374 65.6961 8.51838L65.1422 8.8134C65.5133 8.01365 65.8506 7.1989 66.1665 6.37921C66.361 5.87466 66.2205 5.41134 65.9002 5.01755C65.1783 4.13004 64.2024 3.87796 63.0557 4.09585C62.5217 4.19729 62.4178 4.3409 62.3535 4.88153C62.303 5.30724 62.3118 5.74853 62.1829 6.15505C61.849 7.20764 61.4486 8.24332 61.085 9.28868C60.9761 9.60193 60.5402 10.634 60.202 11.4442L57.0941 13.0992C56.7312 13.2555 56.5446 13.667 56.6771 14.018C56.8096 14.3691 57.2113 14.5269 57.5742 14.3706L59.2935 13.7933C59.0549 14.4337 58.8191 15.075 58.5988 15.7203C58.433 16.2066 56.0086 19.0881 55.2389 19.7781C54.9237 20.0993 54.5784 20.4021 54.2241 20.6726C53.883 20.9334 53.2519 21.3924 52.825 21.1867C52.6255 21.1177 52.4789 20.9078 52.4292 20.6561C52.3729 20.3719 52.3603 20.0659 52.3914 19.7718C52.4335 19.3723 52.7636 17.7219 52.9165 17.1991C54.3568 12.2762 57.1843 5.70465 57.7094 4.45374C58.1001 3.58162 58.5662 2.73286 59.1436 1.99485C59.5118 1.52431 59.4988 1.32998 59.1217 0.936565C58.3708 0.153156 57.4482 -0.184789 56.303 0.100346C55.7844 0.229521 55.51 0.54904 55.2633 1.03687C55.0747 1.41014 54.6909 2.35236 54.6989 2.36661C54.3494 3.45719 50.4254 13.6508 49.8786 15.6661C49.7257 16.2301 49.474 16.71 49.0732 17.1948C47.9593 18.5416 46.6662 19.6643 45.2615 20.6777C45.1012 20.7934 44.9296 20.9 44.7513 20.9813C44.3762 21.1521 44.1097 21.0453 44.0332 20.6589C43.977 20.3748 43.9644 20.0687 43.9955 19.7747C44.038 19.3712 44.124 18.9671 44.2195 18.5682C44.5978 16.9889 45.1608 15.4593 45.7584 13.9394C45.8833 13.6217 45.5555 13.6888 45.5555 13.6888L41.9582 14.8968C41.9582 14.8968 41.7358 14.9872 41.668 15.1996C41.3503 16.1952 40.8845 17.7603 40.6313 18.6714C40.376 19.5904 40.2328 20.5275 40.3489 21.4697C40.4963 22.6663 41.1875 23.2649 42.4162 23.2677C45.0531 23.2736 48.4404 19.4496 48.9939 18.796C48.7605 19.6742 48.6341 20.568 48.7449 21.4667C48.8922 22.6632 49.5834 23.2601 50.8121 23.2647C53.1566 23.2734 55.6505 20.912 56.4954 20.0003C56.8258 19.6436 57.129 19.2623 57.4474 18.8944C57.4882 18.8473 57.5879 18.7432 57.6375 18.7033C57.6547 18.773 57.651 18.9143 57.6426 18.9827C57.614 19.2169 57.5471 19.4506 57.534 19.6839C57.4993 20.3001 57.4234 20.9257 57.476 21.5301C57.5749 22.6659 58.297 23.2668 59.4586 23.2734C59.6931 23.2747 59.9314 23.2533 60.1663 23.2191C61.4076 23.038 62.4694 22.4343 63.4462 21.6397C64.9258 20.4359 66.0523 18.9383 67.1063 17.3815C67.2045 17.2364 67.2974 17.0791 67.3491 16.9165C67.3981 16.7628 67.5281 16.5377 67.4053 16.4332Z" fill="#3F3F3F"/>
        <path d="M18.7537 4.24007C17.0171 3.38732 15.5394 3.43481 14.3727 3.60882C10.4397 4.19543 8.41062 7.46147 8.97367 11.3897C9.16625 12.7326 9.65322 14.0536 10.1499 15.3288C10.7665 16.912 11.4177 18.4769 11.6244 20.1455C11.7815 21.3784 11.7614 22.7604 11.2308 24.0337C10.9767 24.6438 10.5829 25.223 10.0544 25.719C8.26705 27.397 5.6177 27.4882 4.13677 25.9225C2.65584 24.3568 2.90409 21.7273 4.69142 20.0492C5.12081 19.6461 5.60015 19.3372 6.10066 19.119C6.18856 19.0819 6.2757 19.0468 6.36264 19.0139C6.40936 18.9968 6.45607 18.9788 6.50317 18.9632C6.90758 18.8232 7.33544 18.7341 7.93567 18.7331C7.43573 17.8876 6.56189 17.476 5.63047 17.4832C2.52103 17.5077 0 19.9951 0 23.0934C0 25.523 1.55052 27.5913 3.71939 28.3711C4.76426 28.782 5.90046 29.0119 7.09233 29.0119C12.0698 29.0119 16.1236 25.0874 16.3152 20.1751H16.3257C16.4214 17.7315 15.8853 15.472 14.7151 13.3368C14.0257 12.0785 13.4792 10.7684 13.3903 9.30905C13.32 8.15464 13.4838 7.0597 14.2461 6.14008C14.7544 5.52669 15.587 5.30405 16.2061 5.55386C16.8222 5.80233 17.1795 6.44725 17.1484 7.28518C17.1408 7.49338 17.1031 7.70937 17.0489 7.9037C16.7787 8.87233 16.3694 9.30069 16.0002 10.0488C16.0345 10.0657 16.1674 10.1599 16.3152 10.1996C17.8207 10.6046 19.6792 9.647 20.2474 8.18181C20.8463 6.63722 20.2668 4.98302 18.7537 4.24007Z" fill="#3F3F3F"/>
        </g>
        <defs>
        <clipPath id="clip0_53_138">
        <rect width="68" height="29" fill="white"/>
        </clipPath>
        </defs>
    </symbol>


</svg>
